HIERARCHY
ROOT Hip
{
  OFFSET 0.0 0.0 0.0
  CHANNELS 6 Xposition Yposition Zposition Xrotation Yrotation Zrotation
  JOINT LowerSpine
  {
    OFFSET 0.0 0.061367 -0.03653
    CHANNELS 3 Xrotation Yrotation Zrotation
    JOINT MiddleSpine
    {
      OFFSET 0.0 0.056002 0.002633
      CHANNELS 3 Xrotation Yrotation Zrotation
      JOINT Chest
      {
        OFFSET 0.0 0.069296 -0.013882
        CHANNELS 3 Xrotation Yrotation Zrotation
        JOINT Neck
        {
          OFFSET 0.0 0.156156 -0.002923
          CHANNELS 3 Xrotation Yrotation Zrotation
          JOINT Head
          {
            OFFSET 0.0 0.088183 0.023986
            CHANNELS 3 Xrotation Yrotation Zrotation
            End Site
            {
              OFFSET 1e-06 0.123215 0.003678
            }
          }
        }
        JOINT LClavicle
        {
          OFFSET 0.014189 0.150698 0.046467
          CHANNELS 3 Xrotation Yrotation Zrotation
          JOINT LShoulder
          {
            OFFSET 0.082893 0.021616 -0.034976
            CHANNELS 3 Xrotation Yrotation Zrotation
            JOINT LForearm
            {
              OFFSET 0.195645 -0.000695 -0.001695
              CHANNELS 3 Xrotation Yrotation Zrotation
              JOINT LHand
              {
                OFFSET 0.163209 0.000474 -0.000977
                CHANNELS 3 Xrotation Yrotation Zrotation
                End Site
                {
                  OFFSET 0.0 0.006864 0.0
                }
              }
            }
          }
        }
        JOINT RClavicle
        {
          OFFSET -0.014189 0.150698 0.046467
          CHANNELS 3 Xrotation Yrotation Zrotation
          JOINT RShoulder
          {
            OFFSET -0.082908 0.021619 -0.034982
            CHANNELS 3 Xrotation Yrotation Zrotation
            JOINT RForearm
            {
              OFFSET -0.195645 -0.000695 -0.001695
              CHANNELS 3 Xrotation Yrotation Zrotation
              JOINT RHand
              {
                OFFSET -0.163209 0.000474 -0.000977
                CHANNELS 3 Xrotation Yrotation Zrotation
                End Site
                {
                  OFFSET 0.0 0.006864 0.0
                }
              }
            }
          }
        }
      }
    }
  }
  JOINT RThigh
  {
    OFFSET -0.072558 0.02774 -0.005953
    CHANNELS 3 Xrotation Yrotation Zrotation
    JOINT RShin
    {
      OFFSET -0.005253 -0.285537 0.0
      CHANNELS 3 Xrotation Yrotation Zrotation
      JOINT RFoot
      {
        OFFSET 0.0 -0.28038 0.0
        CHANNELS 3 Xrotation Yrotation Zrotation
        JOINT RToe
        {
          OFFSET 0.0 -0.030816 0.064441
          CHANNELS 3 Xrotation Yrotation Zrotation
          End Site
          {
            OFFSET 0.0 0.0 0.043231
          }
        }
      }
    }
  }
  JOINT LThigh
  {
    OFFSET 0.072557 0.027741 -0.005953
    CHANNELS 3 Xrotation Yrotation Zrotation
    JOINT LShin
    {
      OFFSET 0.005253 -0.285539 0.0
      CHANNELS 3 Xrotation Yrotation Zrotation
      JOINT LFoot
      {
        OFFSET 0.0 -0.28038 0.0
        CHANNELS 3 Xrotation Yrotation Zrotation
        JOINT LToe
        {
          OFFSET 0.0 -0.030816 0.064441
          CHANNELS 3 Xrotation Yrotation Zrotation
          End Site
          {
            OFFSET 0.0 0.0 0.043231
          }
        }
      }
    }
  }
}
MOTION
Frames: 7
Frame Time: 0.03333333333333333
-0.033415 0.544578 -0.120905 12.49435 2.128093 0.901914 2.735644 0.055917 -1.193719 0.563794 1.318757 -1.287692 -1.904104 2.141146 -2.938962 1.080124 0.352021 0.101128 0.011759 0.223251 0.017181 -0.011721 0.571961 -5.949646 10.108199 -29.046329 -47.187416 8.403436 -62.321808 1.321466 0.140961 0.162508 -0.150572 -0.503585 -1.231806 9.489284 -8.783047 48.114712 69.479675 3.495799 53.900734 -3.578766 0.499631 -0.565199 0.041514 -38.29203 -0.941337 -5.949636 32.625443 -3.147516 6.583256 -3.415193 -0.027442 -0.078501 0.289684 0.557671 0.030873 -29.526556 7.861933 7.835541 24.204037 10.71247 -9.816066 -3.635963 0.360784 -0.097533 -0.052703 0.01809 0.081153 
-0.030707 0.522767 -0.131184 3.700343 0.495524 1.606727 3.716848 -0.335696 -0.162439 -0.180493 1.746975 -0.166544 -2.929522 4.587115 -4.183834 2.567477 0.641738 0.423946 0.064874 -0.277056 -0.04521 -1.430231 -1.911212 -5.748714 8.008929 -27.083546 -46.961205 10.441664 -61.91061 5.363781 0.121947 0.196381 -0.157289 -2.579633 0.372327 8.836045 -5.886445 39.601597 66.899277 4.222091 56.027626 -3.033229 -0.067897 -0.241157 -0.019678 -30.911825 -0.522198 -3.551491 28.447489 -0.84001 3.992879 -3.183676 -0.498862 -0.641917 -0.063379 0.279448 0.074024 -16.697351 11.360638 6.401364 16.140604 9.038748 -9.708353 -4.68305 0.221219 0.346417 0.065552 -0.146637 -0.023101 
-0.035023 0.521383 -0.135965 5.190891 0.711074 1.203025 3.587713 -0.497432 -0.165589 -0.374145 1.644588 0.202111 -4.566161 4.445177 -3.389818 2.597217 0.668157 0.473455 0.06872 -0.304386 -0.054251 -1.588824 -2.305379 -5.922554 8.484819 -27.450253 -48.523022 11.327764 -58.37775 4.733788 0.109794 0.193671 -0.137375 -2.597711 0.834663 9.241993 -4.653352 39.588131 65.708054 4.220501 53.419044 -0.79993 -0.150274 -0.180647 -0.026685 -33.407082 -1.404214 -2.384659 29.238052 -1.065722 3.587647 -2.885265 -0.46582 -0.631873 -0.110587 0.272052 0.094216 -19.842913 12.065705 7.198181 16.828176 9.538828 -10.082705 -4.342977 0.11436 0.309505 0.083738 -0.162017 -0.040694 
-0.042307 0.521678 -0.134019 6.945195 1.902431 1.89062 3.287197 -0.530221 -0.167656 -0.283359 1.638413 0.060682 -4.721875 4.153791 -3.181888 2.423184 0.603629 0.424287 0.062006 -0.253986 -0.048284 -1.52445 -2.169637 -6.089345 8.803721 -27.526279 -48.584511 10.932872 -59.056396 3.630143 0.087069 0.161673 -0.102804 -2.375138 0.845536 9.587336 -4.994081 40.796864 65.303177 4.267385 51.445045 -0.064631 -0.122749 -0.146131 -0.019764 -36.0453 -1.589974 -2.429124 30.99394 -1.055776 3.356038 -3.123746 -0.416927 -0.553359 -0.111131 0.244214 0.094189 -22.987923 12.802606 7.594025 18.421249 10.356577 -10.441603 -3.994397 0.02592 0.197241 0.065975 -0.112393 -0.025517 
-0.047241 0.519613 -0.137144 9.144029 2.880557 2.350349 3.024124 -0.51258 -0.111307 -0.229254 1.574006 -0.106192 -4.948396 3.744328 -3.432369 2.237293 0.558371 0.359921 0.056945 -0.222808 -0.042817 -1.471438 -2.01209 -6.245514 9.616004 -27.549446 -47.859661 10.739293 -60.298878 2.590341 0.072748 0.138338 -0.077905 -2.218791 0.832482 9.837454 -4.614154 41.885757 64.933105 4.663408 49.656754 0.288419 -0.105765 -0.131242 -0.016688 -39.992207 -1.640928 -2.593867 34.520481 -1.191803 3.262337 -3.597297 -0.405752 -0.541263 -0.119033 0.221708 0.099778 -28.093685 12.627575 8.468542 21.664816 10.467443 -10.784409 -3.73645 -0.094508 0.084213 0.05677 -0.087795 -0.017098 
-0.049725 0.514822 -0.143311 11.370999 3.469543 2.535163 2.795626 -0.478736 -0.050481 -0.228301 1.500257 -0.209642 -5.281482 3.473872 -3.579692 2.074558 0.515122 0.30666 0.053695 -0.199873 -0.038868 -1.446138 -1.834944 -6.447601 10.421549 -27.542788 -47.552258 10.514687 -60.219509 1.847752 0.063053 0.12184 -0.06092 -2.094987 0.877493 9.996653 -3.835078 42.230301 64.455887 4.999867 48.791573 0.536958 -0.096915 -0.119743 -0.014722 -44.984928 -1.56952 -2.498528 39.29137 -1.346853 3.258666 -4.156154 -0.434038 -0.551735 -0.128578 0.206189 0.10496 -34.008923 11.607776 9.319439 25.571619 10.034189 -10.782134 -3.555001 -0.15605 0.004437 0.051991 -0.074601 -0.012647 
-0.048883 0.509778 -0.151938 13.806014 3.755412 2.435953 2.606132 -0.447355 -0.039306 -0.270298 1.419449 -0.254266 -5.715044 3.261624 -3.461547 1.912007 0.470315 0.2557 0.049997 -0.169536 -0.035385 -1.414158 -1.646596 -6.571302 10.723306 -27.568581 -47.848579 10.045622 -59.585423 1.337679 0.056085 0.109227 -0.050632 -1.961934 0.936541 10.08652 -3.233586 42.060131 63.997574 4.841264 48.20089 0.644562 -0.074568 -0.117509 -0.012077 -50.67659 -1.42512 -2.300904 44.103676 -1.53265 3.39429 -4.730308 -0.480604 -0.569766 -0.127792 0.195975 0.10349 -40.371239 10.153735 9.984055 29.584135 9.4053 -10.515402 -3.495838 -0.1567 -0.051845 0.045839 -0.06237 -0.007226 
